<?xml version="1.0" encoding="UTF-8" standalone="no"?>
<!-- Created with Inkscape (http://www.inkscape.org/) -->

<svg
   xmlns:dc="http://purl.org/dc/elements/1.1/"
   xmlns:cc="http://creativecommons.org/ns#"
   xmlns:rdf="http://www.w3.org/1999/02/22-rdf-syntax-ns#"
   xmlns:svg="http://www.w3.org/2000/svg"
   xmlns="http://www.w3.org/2000/svg"
   xmlns:sodipodi="http://sodipodi.sourceforge.net/DTD/sodipodi-0.dtd"
   xmlns:inkscape="http://www.inkscape.org/namespaces/inkscape"
   version="1.1"
   id="svg2140"
   xml:space="preserve"
   width="634.73651"
   height="402.59137"
   viewBox="0 0 634.73651 402.59136"
   sodipodi:docname="infografia_es.svg"
   inkscape:version="0.92.3 (2405546, 2018-03-11)"><metadata
     id="metadata2146"><rdf:RDF><cc:Work
         rdf:about=""><dc:format>image/svg+xml</dc:format><dc:type
           rdf:resource="http://purl.org/dc/dcmitype/StillImage" /><dc:title></dc:title></cc:Work></rdf:RDF></metadata><defs
     id="defs2144"><clipPath
       clipPathUnits="userSpaceOnUse"
       id="clipPath2158"><path
         d="M 0,841.89 H 595.276 V 0 H 0 Z"
         id="path2156"
         inkscape:connector-curvature="0" /></clipPath><clipPath
       clipPathUnits="userSpaceOnUse"
       id="clipPath2296"><path
         d="M 79.007,225.37 H 564.456 V 490.173 H 79.007 Z"
         id="path2294"
         inkscape:connector-curvature="0" /></clipPath><clipPath
       clipPathUnits="userSpaceOnUse"
       id="clipPath2348"><path
         d="M 79.007,225.37 H 564.456 V 490.173 H 79.007 Z"
         id="path2346"
         inkscape:connector-curvature="0" /></clipPath><clipPath
       clipPathUnits="userSpaceOnUse"
       id="clipPath2498"><path
         d="M 79.007,225.37 H 564.456 V 490.173 H 79.007 Z"
         id="path2496"
         inkscape:connector-curvature="0" /></clipPath></defs><sodipodi:namedview
     pagecolor="#ffffff"
     bordercolor="#666666"
     borderopacity="1"
     objecttolerance="10"
     gridtolerance="10"
     guidetolerance="10"
     inkscape:pageopacity="0"
     inkscape:pageshadow="2"
     inkscape:window-width="1366"
     inkscape:window-height="705"
     id="namedview2142"
     showgrid="false"
     fit-margin-top="0"
     fit-margin-left="0"
     fit-margin-right="0"
     fit-margin-bottom="0"
     inkscape:zoom="1"
     inkscape:cx="375.33362"
     inkscape:cy="251.39877"
     inkscape:window-x="-4"
     inkscape:window-y="-4"
     inkscape:window-maximized="1"
     inkscape:current-layer="g2148" /><g
     id="g2148"
     inkscape:groupmode="layer"
     inkscape:label="test"
     transform="matrix(1.3333333,0,0,-1.3333333,-110.32393,644.9182)"><text
       transform="matrix(1,0,0,-1,230.0653,181.8965)"
       style="font-style:italic;font-variant:normal;font-weight:bold;font-stretch:normal;font-size:10px;font-family:Apercu;-inkscape-font-specification:Apercu-BoldItalic;writing-mode:lr-tb;fill:#3b31f5;fill-opacity:1;fill-rule:nonzero;stroke:none"
       id="text2274"><tspan
         x="0 5.5 10.68 12.89 19.389999 25.35 31.610001 38.419998 43.918999 48.938999 56.09 63.058998 69.039001 71.249001 77.999001 83.369003 88.079002 94.058998 96.268997 103.339 110.499 118.149 126.119 133.269 140.13901"
         y="0"
         sodipodi:role="line"
         id="tspan2272">EL BARCELONA DATA COMMONS</tspan></text>
<text
       transform="matrix(1,0,0,-1,528.3698,342.5722)"
       style="font-variant:normal;font-weight:bold;font-stretch:normal;font-size:7.0230999px;font-family:Apercu;-inkscape-font-specification:Apercu-Bold;writing-mode:lr-tb;fill:#231f20;fill-opacity:1;fill-rule:nonzero;stroke:none"
       id="text2280"><tspan
         x="0 5.1830478 8.6945982 11.700484 15.190966 19.313524 22.06658 23.976864"
         y="0"
         sodipodi:role="line"
         id="tspan2276">Garantía</tspan><tspan
         x="-2.7179396 1.4046201 5.3094635 7.0511923 10.956036 14.509725 16.370846 18.260059 22.403688 26.097839"
         y="8.4277201"
         sodipodi:role="line"
         id="tspan2278">de calidad</tspan></text>
<text
       transform="matrix(1,0,0,-1,370.8813,239.5048)"
       style="font-variant:normal;font-weight:bold;font-stretch:normal;font-size:7.02250004px;font-family:Apercu;-inkscape-font-specification:Apercu-Bold;writing-mode:lr-tb;fill:#e84f52;fill-opacity:1;fill-rule:nonzero;stroke:none"
       id="text2288"><tspan
         x="0 4.9578848 6.7837348 10.849763 14.993037 18.686872 22.830147 26.32033 30.414448 34.578789 37.781052 39.522629 43.385006 45.126583 49.031094 55.049377 59.157539 62.135078 66.039589 69.241852 72.851418"
         y="0"
         sodipodi:role="line"
         id="tspan2282">Ciudadanos / empresas</tspan><tspan
         x="-17.30344 -13.012692 -7.0295224 -2.86518 -0.96910501 1.7486025 5.9480577 7.6896377 11.383472 15.287983 18.981115 23.103323 27.007833 33.01207 34.901123 38.826702 43.026154 44.767735 48.630112 50.371689 54.297268 58.468632 64.479897 68.447609 72.408295 74.297348 78.44062 82.13446 86.255966 90.160477"
         y="8.427"
         sodipodi:role="line"
         id="tspan2284">Ámbito académico / comunidades</tspan><tspan
         x="-205.29576 -199.98676 -195.96988 -192.10049 -190.42914 -186.30693 -182.69736 -180.95578 -176.83357 -172.92906 -171.18748 -166.91078 -162.78857 -159.23518 -157.37422 -155.54837"
         y="3.7429924"
         sodipodi:role="line"
         id="tspan2286">Ofcina de Análi-</tspan></text>
<g
       id="g2290"><g
         id="g2292"
         clip-path="url(#clipPath2296)"><text
           transform="matrix(1,0,0,-1,165.1358,227.3347)"
           style="font-variant:normal;font-weight:bold;font-stretch:normal;font-size:7.02250004px;font-family:Apercu;-inkscape-font-specification:Apercu-Bold;writing-mode:lr-tb;fill:#e84f52;fill-opacity:1;fill-rule:nonzero;stroke:none"
           id="text2300"><tspan
             x="0 3.1109674 4.9227724 8.1250324 9.8666124 13.98882 17.89333 19.634911 24.466391 28.11809 30.835798 35.000141 38.2024 39.943981 44.375179 49.241772"
             y="0"
             sodipodi:role="line"
             id="tspan2298">sis de Datos BCN</tspan></text>
</g></g><text
       transform="matrix(1,0,0,-1,160.0515,322.3001)"
       style="font-variant:normal;font-weight:bold;font-stretch:normal;font-size:7.02250004px;font-family:Apercu;-inkscape-font-specification:Apercu-Bold;writing-mode:lr-tb;fill:#231f20;fill-opacity:1;fill-rule:nonzero;stroke:none"
       id="text2312"><tspan
         x="0 4.0238924 8.08992 12.113812 13.827303 18.082937 22.24728 25.449539 27.19112 31.074562 35.168678 39.073189 42.584438 45.547935 49.164524 52.858356 56.980564 61.144909 64.347168"
         y="0"
         sodipodi:role="line"
         id="tspan2302">Equipos encargados </tspan><tspan
         x="4.8385024 8.9607096 12.86522 14.6068 16.530966 20.695307 23.897568 25.639147 29.782423 33.434124 36.151829 40.316174 43.518433 45.260014 49.691212 54.557804"
         y="8.427"
         sodipodi:role="line"
         id="tspan2304">de los datos BCN</tspan><tspan
         x="129.14377 134.17891 137.78847 140.95563 145.11996"
         y="35.554916"
         sodipodi:role="line"
         id="tspan2306">Casos</tspan><tspan
         x="128.18872 132.31093 136.21544 137.95702 141.91068 145.07784"
         y="43.981918"
         sodipodi:role="line"
         id="tspan2308">de uso</tspan><tspan
         x="119.74767 123.93308 127.8095 130.77299 133.97525 138.23019 142.28287 146.29974 149.05257 150.87842 154.11578"
         y="68.687073"
         sodipodi:role="line"
         id="tspan2310">Perspectiva</tspan></text>
<text
       transform="matrix(1,0,0,-1,400.49,471.4632)"
       style="font-variant:normal;font-weight:bold;font-stretch:normal;font-size:16.47220039px;font-family:Apercu;-inkscape-font-specification:Apercu-Bold;writing-mode:lr-tb;fill:#e84f52;fill-opacity:1;fill-rule:nonzero;stroke:none"
       id="text2316"><tspan
         x="0 10.986958 19.898418 28.628683 40.999306 49.844875 53.929981 64.323944 75.739174"
         y="0"
         sodipodi:role="line"
         id="tspan2314">DATOS BCN</tspan></text>
<g
       id="g2318"
       transform="translate(281.4467,270.5813)"><path
         d="M 0,0 H 34.669"
         style="fill:none;stroke:#3b31f5;stroke-width:2.00600004;stroke-linecap:butt;stroke-linejoin:miter;stroke-miterlimit:10;stroke-dasharray:none;stroke-opacity:1"
         id="path2320"
         inkscape:connector-curvature="0" /></g><g
       id="g2322"
       transform="translate(282.5591,266.7795)"><path
         d="M 0,0 -6.583,3.801 0,7.603 Z"
         style="fill:#3b31f5;fill-opacity:1;fill-rule:nonzero;stroke:none"
         id="path2324"
         inkscape:connector-curvature="0" /></g><g
       id="g2326"
       transform="translate(315.0031,266.7795)"><path
         d="M 0,0 6.583,3.801 0,7.603 Z"
         style="fill:#3b31f5;fill-opacity:1;fill-rule:nonzero;stroke:none"
         id="path2328"
         inkscape:connector-curvature="0" /></g><g
       id="g2330"
       transform="translate(192.2206,281.1306)"><path
         d="M 0,0 V -7.033"
         style="fill:none;stroke:#3b31f5;stroke-width:0.63300002;stroke-linecap:butt;stroke-linejoin:miter;stroke-miterlimit:10;stroke-dasharray:none;stroke-opacity:1"
         id="path2332"
         inkscape:connector-curvature="0" /></g><g
       id="g2334"
       transform="translate(190.959,280.7615)"><path
         d="M 0,0 1.261,2.185 2.523,0 Z"
         style="fill:#3b31f5;fill-opacity:1;fill-rule:nonzero;stroke:none"
         id="path2336"
         inkscape:connector-curvature="0" /></g><g
       id="g2338"
       transform="translate(190.959,274.4669)"><path
         d="M 0,0 1.261,-2.185 2.523,0 Z"
         style="fill:#3b31f5;fill-opacity:1;fill-rule:nonzero;stroke:none"
         id="path2340"
         inkscape:connector-curvature="0" /></g><g
       id="g2342"><g
         id="g2344"
         clip-path="url(#clipPath2348)"><g
           id="g2350"
           transform="translate(182.7574,306.7707)"><path
             d="m 0,0 c -1.454,0 -2.638,-1.183 -2.638,-2.637 0,-1.455 1.184,-2.637 2.638,-2.637 1.454,0 2.637,1.182 2.637,2.637 C 2.637,-1.183 1.454,0 0,0 m 0,-7.606 c -2.74,0 -4.969,2.229 -4.969,4.969 0,2.739 2.229,4.968 4.969,4.968 2.739,0 4.968,-2.229 4.968,-4.968 0,-2.74 -2.229,-4.969 -4.968,-4.969"
             style="fill:#e84f52;fill-opacity:1;fill-rule:nonzero;stroke:none"
             id="path2352"
             inkscape:connector-curvature="0" /></g><g
           id="g2354"
           transform="translate(189.7435,289.017)"><path
             d="m 0,0 c -0.644,0 -1.166,0.522 -1.166,1.166 0,3.209 -2.61,5.821 -5.82,5.821 -3.21,0 -5.821,-2.612 -5.821,-5.821 0,-0.644 -0.522,-1.166 -1.166,-1.166 -0.644,0 -1.165,0.522 -1.165,1.166 0,4.495 3.657,8.152 8.152,8.152 4.495,0 8.152,-3.657 8.152,-8.152 C 1.166,0.522 0.644,0 0,0"
             style="fill:#e84f52;fill-opacity:1;fill-rule:nonzero;stroke:none"
             id="path2356"
             inkscape:connector-curvature="0" /></g><g
           id="g2358"
           transform="translate(201.6843,306.7707)"><path
             d="m 0,0 c -1.454,0 -2.638,-1.183 -2.638,-2.637 0,-1.455 1.184,-2.637 2.638,-2.637 1.454,0 2.637,1.182 2.637,2.637 C 2.637,-1.183 1.454,0 0,0 m 0,-7.606 c -2.74,0 -4.969,2.229 -4.969,4.969 0,2.739 2.229,4.968 4.969,4.968 2.739,0 4.968,-2.229 4.968,-4.968 0,-2.74 -2.229,-4.969 -4.968,-4.969"
             style="fill:#e84f52;fill-opacity:1;fill-rule:nonzero;stroke:none"
             id="path2360"
             inkscape:connector-curvature="0" /></g><g
           id="g2362"
           transform="translate(208.6704,289.017)"><path
             d="m 0,0 c -0.644,0 -1.166,0.522 -1.166,1.166 0,3.209 -2.61,5.821 -5.82,5.821 -3.21,0 -5.821,-2.612 -5.821,-5.821 0,-0.644 -0.522,-1.166 -1.166,-1.166 -0.644,0 -1.165,0.522 -1.165,1.166 0,4.495 3.657,8.152 8.152,8.152 4.495,0 8.152,-3.657 8.152,-8.152 C 1.166,0.522 0.644,0 0,0"
             style="fill:#e84f52;fill-opacity:1;fill-rule:nonzero;stroke:none"
             id="path2364"
             inkscape:connector-curvature="0" /></g><g
           id="g2366"
           transform="translate(182.7574,263.88)"><path
             d="m 0,0 c -1.454,0 -2.638,-1.183 -2.638,-2.637 0,-1.454 1.184,-2.637 2.638,-2.637 1.454,0 2.637,1.183 2.637,2.637 C 2.637,-1.183 1.454,0 0,0 m 0,-7.606 c -2.74,0 -4.969,2.229 -4.969,4.969 0,2.739 2.229,4.968 4.969,4.968 2.739,0 4.968,-2.229 4.968,-4.968 0,-2.74 -2.229,-4.969 -4.968,-4.969"
             style="fill:#e84f52;fill-opacity:1;fill-rule:nonzero;stroke:none"
             id="path2368"
             inkscape:connector-curvature="0" /></g><g
           id="g2370"
           transform="translate(189.7435,246.1263)"><path
             d="m 0,0 c -0.644,0 -1.166,0.522 -1.166,1.166 0,3.209 -2.61,5.821 -5.82,5.821 -3.21,0 -5.821,-2.612 -5.821,-5.821 0,-0.644 -0.522,-1.166 -1.166,-1.166 -0.644,0 -1.165,0.522 -1.165,1.166 0,4.495 3.657,8.152 8.152,8.152 4.495,0 8.152,-3.657 8.152,-8.152 C 1.166,0.522 0.644,0 0,0"
             style="fill:#e84f52;fill-opacity:1;fill-rule:nonzero;stroke:none"
             id="path2372"
             inkscape:connector-curvature="0" /></g><g
           id="g2374"
           transform="translate(201.6843,263.88)"><path
             d="m 0,0 c -1.454,0 -2.638,-1.183 -2.638,-2.637 0,-1.454 1.184,-2.637 2.638,-2.637 1.454,0 2.637,1.183 2.637,2.637 C 2.637,-1.183 1.454,0 0,0 m 0,-7.606 c -2.74,0 -4.969,2.229 -4.969,4.969 0,2.739 2.229,4.968 4.969,4.968 2.739,0 4.968,-2.229 4.968,-4.968 0,-2.74 -2.229,-4.969 -4.968,-4.969"
             style="fill:#e84f52;fill-opacity:1;fill-rule:nonzero;stroke:none"
             id="path2376"
             inkscape:connector-curvature="0" /></g><g
           id="g2378"
           transform="translate(208.6704,246.1263)"><path
             d="m 0,0 c -0.644,0 -1.166,0.522 -1.166,1.166 0,3.209 -2.61,5.821 -5.82,5.821 -3.21,0 -5.821,-2.612 -5.821,-5.821 0,-0.644 -0.522,-1.166 -1.166,-1.166 -0.644,0 -1.165,0.522 -1.165,1.166 0,4.495 3.657,8.152 8.152,8.152 4.495,0 8.152,-3.657 8.152,-8.152 C 1.166,0.522 0.644,0 0,0"
             style="fill:#e84f52;fill-opacity:1;fill-rule:nonzero;stroke:none"
             id="path2380"
             inkscape:connector-curvature="0" /></g><g
           id="g2382"
           transform="translate(408.2634,304.9357)"><path
             d="m 0,0 c -1.454,0 -2.637,-1.183 -2.637,-2.637 0,-1.454 1.183,-2.637 2.637,-2.637 1.454,0 2.637,1.183 2.637,2.637 C 2.637,-1.183 1.454,0 0,0 m 0,-7.606 c -2.74,0 -4.969,2.229 -4.969,4.969 0,2.74 2.229,4.968 4.969,4.968 2.739,0 4.968,-2.228 4.968,-4.968 0,-2.74 -2.229,-4.969 -4.968,-4.969"
             style="fill:#e84f52;fill-opacity:1;fill-rule:nonzero;stroke:none"
             id="path2384"
             inkscape:connector-curvature="0" /></g><g
           id="g2386"
           transform="translate(415.2495,287.1819)"><path
             d="m 0,0 c -0.644,0 -1.166,0.522 -1.166,1.166 0,3.209 -2.61,5.821 -5.82,5.821 -3.21,0 -5.821,-2.612 -5.821,-5.821 0,-0.644 -0.522,-1.166 -1.165,-1.166 -0.645,0 -1.166,0.522 -1.166,1.166 0,4.495 3.657,8.152 8.152,8.152 4.495,0 8.152,-3.657 8.152,-8.152 C 1.166,0.522 0.644,0 0,0"
             style="fill:#e84f52;fill-opacity:1;fill-rule:nonzero;stroke:none"
             id="path2388"
             inkscape:connector-curvature="0" /></g><g
           id="g2390"
           transform="translate(427.1903,304.9357)"><path
             d="m 0,0 c -1.454,0 -2.637,-1.183 -2.637,-2.637 0,-1.454 1.183,-2.637 2.637,-2.637 1.454,0 2.637,1.183 2.637,2.637 C 2.637,-1.183 1.454,0 0,0 m 0,-7.606 c -2.74,0 -4.968,2.229 -4.968,4.969 0,2.74 2.228,4.968 4.968,4.968 2.739,0 4.968,-2.228 4.968,-4.968 0,-2.74 -2.229,-4.969 -4.968,-4.969"
             style="fill:#e84f52;fill-opacity:1;fill-rule:nonzero;stroke:none"
             id="path2392"
             inkscape:connector-curvature="0" /></g><g
           id="g2394"
           transform="translate(434.1764,287.1819)"><path
             d="m 0,0 c -0.644,0 -1.166,0.522 -1.166,1.166 0,3.209 -2.61,5.821 -5.82,5.821 -3.21,0 -5.821,-2.612 -5.821,-5.821 0,-0.644 -0.521,-1.166 -1.165,-1.166 -0.644,0 -1.166,0.522 -1.166,1.166 0,4.495 3.657,8.152 8.152,8.152 4.495,0 8.152,-3.657 8.152,-8.152 C 1.166,0.522 0.644,0 0,0"
             style="fill:#e84f52;fill-opacity:1;fill-rule:nonzero;stroke:none"
             id="path2396"
             inkscape:connector-curvature="0" /></g><g
           id="g2398"
           transform="translate(389.3365,286.9213)"><path
             d="m 0,0 c -1.454,0 -2.637,-1.183 -2.637,-2.637 0,-1.454 1.183,-2.637 2.637,-2.637 1.454,0 2.637,1.183 2.637,2.637 C 2.637,-1.183 1.454,0 0,0 m 0,-7.606 c -2.74,0 -4.969,2.229 -4.969,4.969 0,2.74 2.229,4.968 4.969,4.968 2.739,0 4.968,-2.228 4.968,-4.968 0,-2.74 -2.229,-4.969 -4.968,-4.969"
             style="fill:#e84f52;fill-opacity:1;fill-rule:nonzero;stroke:none"
             id="path2400"
             inkscape:connector-curvature="0" /></g><g
           id="g2402"
           transform="translate(396.3226,269.1678)"><path
             d="m 0,0 c -0.644,0 -1.166,0.522 -1.166,1.166 0,3.209 -2.61,5.82 -5.82,5.82 -3.21,0 -5.821,-2.611 -5.821,-5.82 0,-0.644 -0.522,-1.166 -1.165,-1.166 -0.645,0 -1.166,0.522 -1.166,1.166 0,4.494 3.657,8.151 8.152,8.151 4.495,0 8.152,-3.657 8.152,-8.151 C 1.166,0.522 0.644,0 0,0"
             style="fill:#e84f52;fill-opacity:1;fill-rule:nonzero;stroke:none"
             id="path2404"
             inkscape:connector-curvature="0" /></g><g
           id="g2406"
           transform="translate(389.3365,304.9651)"><path
             d="m 0,0 c -1.454,0 -2.637,-1.183 -2.637,-2.637 0,-1.454 1.183,-2.637 2.637,-2.637 1.454,0 2.637,1.183 2.637,2.637 C 2.637,-1.183 1.454,0 0,0 m 0,-7.605 c -2.74,0 -4.969,2.228 -4.969,4.968 0,2.74 2.229,4.968 4.969,4.968 2.739,0 4.968,-2.228 4.968,-4.968 0,-2.74 -2.229,-4.968 -4.968,-4.968"
             style="fill:#e84f52;fill-opacity:1;fill-rule:nonzero;stroke:none"
             id="path2408"
             inkscape:connector-curvature="0" /></g><g
           id="g2410"
           transform="translate(396.3226,287.2115)"><path
             d="m 0,0 c -0.644,0 -1.166,0.522 -1.166,1.166 0,3.209 -2.61,5.82 -5.82,5.82 -3.21,0 -5.821,-2.611 -5.821,-5.82 0,-0.644 -0.522,-1.166 -1.165,-1.166 -0.645,0 -1.166,0.522 -1.166,1.166 0,4.494 3.657,8.151 8.152,8.151 4.495,0 8.152,-3.657 8.152,-8.151 C 1.166,0.522 0.644,0 0,0"
             style="fill:#e84f52;fill-opacity:1;fill-rule:nonzero;stroke:none"
             id="path2412"
             inkscape:connector-curvature="0" /></g><g
           id="g2414"
           transform="translate(408.2634,286.9213)"><path
             d="m 0,0 c -1.454,0 -2.637,-1.183 -2.637,-2.637 0,-1.454 1.183,-2.637 2.637,-2.637 1.454,0 2.637,1.183 2.637,2.637 C 2.637,-1.183 1.454,0 0,0 m 0,-7.606 c -2.74,0 -4.969,2.229 -4.969,4.969 0,2.74 2.229,4.968 4.969,4.968 2.739,0 4.968,-2.228 4.968,-4.968 0,-2.74 -2.229,-4.969 -4.968,-4.969"
             style="fill:#e84f52;fill-opacity:1;fill-rule:nonzero;stroke:none"
             id="path2416"
             inkscape:connector-curvature="0" /></g><g
           id="g2418"
           transform="translate(415.2495,269.1678)"><path
             d="m 0,0 c -0.644,0 -1.166,0.522 -1.166,1.166 0,3.209 -2.61,5.82 -5.82,5.82 -3.21,0 -5.821,-2.611 -5.821,-5.82 0,-0.644 -0.522,-1.166 -1.165,-1.166 -0.645,0 -1.166,0.522 -1.166,1.166 0,4.494 3.657,8.151 8.152,8.151 4.495,0 8.152,-3.657 8.152,-8.151 C 1.166,0.522 0.644,0 0,0"
             style="fill:#e84f52;fill-opacity:1;fill-rule:nonzero;stroke:none"
             id="path2420"
             inkscape:connector-curvature="0" /></g><g
           id="g2422"
           transform="translate(427.1903,286.9213)"><path
             d="m 0,0 c -1.454,0 -2.637,-1.183 -2.637,-2.637 0,-1.454 1.183,-2.637 2.637,-2.637 1.454,0 2.637,1.183 2.637,2.637 C 2.637,-1.183 1.454,0 0,0 m 0,-7.606 c -2.74,0 -4.968,2.229 -4.968,4.969 0,2.74 2.228,4.968 4.968,4.968 2.739,0 4.968,-2.228 4.968,-4.968 0,-2.74 -2.229,-4.969 -4.968,-4.969"
             style="fill:#e84f52;fill-opacity:1;fill-rule:nonzero;stroke:none"
             id="path2424"
             inkscape:connector-curvature="0" /></g><g
           id="g2426"
           transform="translate(434.1764,269.1678)"><path
             d="m 0,0 c -0.644,0 -1.166,0.522 -1.166,1.166 0,3.209 -2.61,5.82 -5.82,5.82 -3.21,0 -5.821,-2.611 -5.821,-5.82 0,-0.644 -0.521,-1.166 -1.165,-1.166 -0.644,0 -1.166,0.522 -1.166,1.166 0,4.494 3.657,8.151 8.152,8.151 4.495,0 8.152,-3.657 8.152,-8.151 C 1.166,0.522 0.644,0 0,0"
             style="fill:#e84f52;fill-opacity:1;fill-rule:nonzero;stroke:none"
             id="path2428"
             inkscape:connector-curvature="0" /></g><g
           id="g2430"
           transform="translate(389.3365,268.907)"><path
             d="m 0,0 c -1.454,0 -2.637,-1.183 -2.637,-2.637 0,-1.454 1.183,-2.637 2.637,-2.637 1.454,0 2.637,1.183 2.637,2.637 C 2.637,-1.183 1.454,0 0,0 m 0,-7.605 c -2.74,0 -4.969,2.228 -4.969,4.968 0,2.74 2.229,4.968 4.969,4.968 2.739,0 4.968,-2.228 4.968,-4.968 0,-2.74 -2.229,-4.968 -4.968,-4.968"
             style="fill:#e84f52;fill-opacity:1;fill-rule:nonzero;stroke:none"
             id="path2432"
             inkscape:connector-curvature="0" /></g><g
           id="g2434"
           transform="translate(396.3226,251.1534)"><path
             d="m 0,0 c -0.644,0 -1.166,0.522 -1.166,1.166 0,3.209 -2.61,5.82 -5.82,5.82 -3.21,0 -5.821,-2.611 -5.821,-5.82 0,-0.644 -0.522,-1.166 -1.165,-1.166 -0.645,0 -1.166,0.522 -1.166,1.166 0,4.494 3.657,8.151 8.152,8.151 4.495,0 8.152,-3.657 8.152,-8.151 C 1.166,0.522 0.644,0 0,0"
             style="fill:#e84f52;fill-opacity:1;fill-rule:nonzero;stroke:none"
             id="path2436"
             inkscape:connector-curvature="0" /></g><g
           id="g2438"
           transform="translate(408.2634,268.907)"><path
             d="m 0,0 c -1.454,0 -2.637,-1.183 -2.637,-2.637 0,-1.454 1.183,-2.637 2.637,-2.637 1.454,0 2.637,1.183 2.637,2.637 C 2.637,-1.183 1.454,0 0,0 m 0,-7.605 c -2.74,0 -4.969,2.228 -4.969,4.968 0,2.74 2.229,4.968 4.969,4.968 2.739,0 4.968,-2.228 4.968,-4.968 0,-2.74 -2.229,-4.968 -4.968,-4.968"
             style="fill:#e84f52;fill-opacity:1;fill-rule:nonzero;stroke:none"
             id="path2440"
             inkscape:connector-curvature="0" /></g><g
           id="g2442"
           transform="translate(415.2495,251.1534)"><path
             d="m 0,0 c -0.644,0 -1.166,0.522 -1.166,1.166 0,3.209 -2.61,5.82 -5.82,5.82 -3.21,0 -5.821,-2.611 -5.821,-5.82 0,-0.644 -0.522,-1.166 -1.165,-1.166 -0.645,0 -1.166,0.522 -1.166,1.166 0,4.494 3.657,8.151 8.152,8.151 4.495,0 8.152,-3.657 8.152,-8.151 C 1.166,0.522 0.644,0 0,0"
             style="fill:#e84f52;fill-opacity:1;fill-rule:nonzero;stroke:none"
             id="path2444"
             inkscape:connector-curvature="0" /></g><g
           id="g2446"
           transform="translate(427.1903,268.907)"><path
             d="m 0,0 c -1.454,0 -2.637,-1.183 -2.637,-2.637 0,-1.454 1.183,-2.637 2.637,-2.637 1.454,0 2.637,1.183 2.637,2.637 C 2.637,-1.183 1.454,0 0,0 m 0,-7.605 c -2.74,0 -4.968,2.228 -4.968,4.968 0,2.74 2.228,4.968 4.968,4.968 2.739,0 4.968,-2.228 4.968,-4.968 0,-2.74 -2.229,-4.968 -4.968,-4.968"
             style="fill:#e84f52;fill-opacity:1;fill-rule:nonzero;stroke:none"
             id="path2448"
             inkscape:connector-curvature="0" /></g><g
           id="g2450"
           transform="translate(434.1764,251.1534)"><path
             d="m 0,0 c -0.644,0 -1.166,0.522 -1.166,1.166 0,3.209 -2.61,5.82 -5.82,5.82 -3.21,0 -5.821,-2.611 -5.821,-5.82 0,-0.644 -0.521,-1.166 -1.165,-1.166 -0.644,0 -1.166,0.522 -1.166,1.166 0,4.494 3.657,8.151 8.152,8.151 4.495,0 8.152,-3.657 8.152,-8.151 C 1.166,0.522 0.644,0 0,0"
             style="fill:#e84f52;fill-opacity:1;fill-rule:nonzero;stroke:none"
             id="path2452"
             inkscape:connector-curvature="0" /></g><g
           id="g2454"
           transform="translate(100.7833,316.2714)"><path
             d="m 0,0 c -5.776,4.608 -10.537,10.702 -13.495,18.092 -6.831,16.229 -3.432,34.227 7.167,46.921"
             style="fill:none;stroke:#3b31f5;stroke-width:2.00600004;stroke-linecap:butt;stroke-linejoin:miter;stroke-miterlimit:10;stroke-dasharray:none;stroke-opacity:1"
             id="path2456"
             inkscape:connector-curvature="0" /></g><g
           id="g2458"
           transform="translate(102.1348,320.0516)"><path
             d="M 0,0 3.122,-6.932 -4.443,-6.17 Z"
             style="fill:#3b31f5;fill-opacity:1;fill-rule:nonzero;stroke:none"
             id="path2460"
             inkscape:connector-curvature="0" /></g><g
           id="g2462"
           transform="translate(492.3315,306.9908)"><path
             d="M 0,0 C 6.06,4.227 11.204,10.002 14.631,17.186 22.494,32.941 20.26,51.121 10.5,64.471"
             style="fill:none;stroke:#3b31f5;stroke-width:2.00600004;stroke-linecap:butt;stroke-linejoin:miter;stroke-miterlimit:10;stroke-dasharray:none;stroke-opacity:1"
             id="path2464"
             inkscape:connector-curvature="0" /></g><g
           id="g2466"
           transform="translate(495.2626,304.4064)"><path
             d="m 0,0 -7.597,-0.273 3.561,6.716 z"
             style="fill:#3b31f5;fill-opacity:1;fill-rule:nonzero;stroke:none"
             id="path2468"
             inkscape:connector-curvature="0" /></g><g
           id="g2470"
           transform="translate(329.4253,466.4901)"><path
             d="M 0,0 C -5.516,4.916 -12.326,8.581 -20.11,10.25 -37.258,14.246 -54.425,7.86 -65.15,-4.728"
             style="fill:none;stroke:#3b31f5;stroke-width:2.00600004;stroke-linecap:butt;stroke-linejoin:miter;stroke-miterlimit:10;stroke-dasharray:none;stroke-opacity:1"
             id="path2472"
             inkscape:connector-curvature="0" /></g><g
           id="g2474"
           transform="translate(331.2599,469.9403)"><path
             d="M 0,0 2.027,-7.327 -5.332,-5.42 Z"
             style="fill:#3b31f5;fill-opacity:1;fill-rule:nonzero;stroke:none"
             id="path2476"
             inkscape:connector-curvature="0" /></g></g></g><text
       transform="matrix(1,0,0,-1,124.7786,451.4505)"
       style="font-variant:normal;font-weight:bold;font-stretch:normal;font-size:16.47220039px;font-family:Apercu;-inkscape-font-specification:Apercu-Bold;writing-mode:lr-tb;fill:#e84f52;fill-opacity:1;fill-rule:nonzero;stroke:none"
       id="text2484"><tspan
         x="0 10.986958 19.898418 28.628683 40.999306"
         y="0"
         sodipodi:role="line"
         id="tspan2478">DATOS</tspan><tspan
         x="0 11.76115 24.214134 36.815369 45.825661 55.807812 66.350021 75.376785 79.873695 91.321877 103.6925 112.53807"
         y="16.060394"
         sodipodi:role="line"
         id="tspan2480">COMPARTIDOS </tspan><tspan
         x="0 10.393958 21.809193"
         y="32.120789"
         sodipodi:role="line"
         id="tspan2482">BCN</tspan></text>
<text
       transform="matrix(1,0,0,-1,124.7786,406.0402)"
       style="font-variant:normal;font-weight:bold;font-stretch:normal;font-size:8.8696003px;font-family:Apercu;-inkscape-font-specification:Apercu-Bold;writing-mode:lr-tb;fill:#e84f52;fill-opacity:1;fill-rule:nonzero;stroke:none"
       id="text2490"><tspan
         x="0 4.7363663 11.52161 16.923197 20.142862 22.342522 27.877153 30.094553 37.775627 41.820164 46.379139 49.598804 51.798466 57.333096 60.33102 65.093994"
         y="0"
         sodipodi:role="line"
         id="tspan2486">TMB, Bimsa, B:SM</tspan><tspan
         x="0 6.492547 11.699002 16.133802 19.894512 25.05662 27.469151 32.028126 34.227787 39.930939 43.673912 49.004539 53.412731 58.619186 63.178162 66.397827 68.597488 74.043419 76.349518 80.5271 82.913017 87.817909 92.988884 98.221947"
         y="10.64352"
         sodipodi:role="line"
         id="tspan2488">Guardia Urbana, Vivienda</tspan></text>
<g
       id="g2492"><g
         id="g2494"
         clip-path="url(#clipPath2498)"><g
           id="g2500"
           transform="translate(449.1958,460.4701)"><path
             d="m 0,0 c 0,0 9.379,-0.552 11.035,-2.942 1.655,-2.391 1.655,-35.495 1.655,-35.495 0,0 1.287,-1.471 -1.288,-2.575 -2.574,-1.103 -17.471,-3.46 -18.758,-2.833 -0.619,0.301 -10.657,0.096 -14.161,2.833 -3.127,2.442 -2.024,22.805 -2.024,22.805 v 12.506 l 2.575,2.942 7.908,2.759 z"
             style="fill:#ffffff;fill-opacity:1;fill-rule:nonzero;stroke:none"
             id="path2502"
             inkscape:connector-curvature="0" /></g><g
           id="g2504"
           transform="translate(443.8623,459.1417)"><path
             d="m 0,0 c 10.268,0 16.552,-2.679 16.552,-4.138 0,-1.459 -6.284,-4.138 -16.552,-4.138 -10.268,0 -16.552,2.679 -16.552,4.138 C -16.552,-2.679 -10.268,0 0,0 m 0,-41.38 c -10.268,0 -16.552,2.679 -16.552,4.138 v 7.306 c 3.564,-2.089 10.083,-3.168 16.552,-3.168 6.469,0 12.988,1.078 16.552,3.168 v -7.306 c 0,-1.459 -6.284,-4.138 -16.552,-4.138 m 16.552,26.207 c 0,-1.459 -6.284,-4.137 -16.552,-4.137 -10.268,0 -16.552,2.678 -16.552,4.137 v 7.306 c 3.564,-2.089 10.083,-3.168 16.552,-3.168 6.469,0 12.988,1.079 16.552,3.168 z m 0,-11.034 c 0,-1.459 -6.284,-4.138 -16.552,-4.138 -10.268,0 -16.552,2.679 -16.552,4.138 v 7.305 c 3.564,-2.088 10.083,-3.167 16.552,-3.167 6.469,0 12.988,1.078 16.552,3.167 z M -19.31,-4.138 v -33.104 c 0,-4.527 9.714,-6.896 19.31,-6.896 9.596,0 19.31,2.369 19.31,6.896 v 33.104 c 0,4.527 -9.714,6.897 -19.31,6.897 -9.596,0 -19.31,-2.37 -19.31,-6.897"
             style="fill:#e84f52;fill-opacity:1;fill-rule:nonzero;stroke:none"
             id="path2506"
             inkscape:connector-curvature="0" /></g><g
           id="g2508"
           transform="translate(414.069,442.0791)"><path
             d="m 0,0 -6.253,-2.023 -4.414,-2.391 v -24.644 l 9.196,-3.862 h 13.425 l 8.828,1.655 4.414,2.575 V -5.333 L 20.782,-1.655 9.011,0 Z"
             style="fill:#ffffff;fill-opacity:1;fill-rule:nonzero;stroke:none"
             id="path2510"
             inkscape:connector-curvature="0" /></g><g
           id="g2512"
           transform="translate(421.0576,440.6997)"><path
             d="m 0,0 c 10.268,0 16.552,-2.679 16.552,-4.138 0,-1.459 -6.284,-4.138 -16.552,-4.138 -10.268,0 -16.552,2.679 -16.552,4.138 C -16.552,-2.679 -10.268,0 0,0 m 0,-30.529 c -10.268,0 -16.552,2.679 -16.552,4.138 v 7.305 c 3.564,-2.088 10.083,-3.167 16.552,-3.167 6.469,0 12.988,1.078 16.552,3.167 v -7.305 c 0,-1.459 -6.284,-4.138 -16.552,-4.138 m 16.552,15.356 c 0,-1.459 -6.284,-4.137 -16.552,-4.137 -10.268,0 -16.552,2.678 -16.552,4.137 v 7.306 c 3.564,-2.089 10.083,-3.168 16.552,-3.168 6.469,0 12.988,1.079 16.552,3.168 z m 0,-0.183 c 0,-1.46 -6.284,-4.138 -16.552,-4.138 -10.268,0 -16.552,2.678 -16.552,4.138 v -3.546 c 3.564,-2.089 10.083,-3.167 16.552,-3.167 6.469,0 12.988,1.078 16.552,3.167 z m -35.863,11.218 v -13.287 -8.966 c 0,-4.527 9.715,-6.897 19.311,-6.897 9.596,0 19.31,2.37 19.31,6.897 v 8.483 13.77 c 0,4.527 -9.714,6.897 -19.31,6.897 -9.596,0 -19.311,-2.37 -19.311,-6.897"
             style="fill:#e84f52;fill-opacity:1;fill-rule:nonzero;stroke:none"
             id="path2514"
             inkscape:connector-curvature="0" /></g><g
           id="g2516"
           transform="translate(447.5406,431.6472)"><path
             d="m 0,0 -6.253,-2.023 -4.414,-2.391 v -24.644 l 9.196,-3.862 h 13.425 l 8.828,1.655 4.414,2.575 V -5.333 L 20.782,-1.655 9.011,0 Z"
             style="fill:#ffffff;fill-opacity:1;fill-rule:nonzero;stroke:none"
             id="path2518"
             inkscape:connector-curvature="0" /></g><g
           id="g2520"
           transform="translate(454.5292,430.2678)"><path
             d="m 0,0 c 10.268,0 16.552,-2.679 16.552,-4.138 0,-1.459 -6.284,-4.138 -16.552,-4.138 -10.268,0 -16.552,2.679 -16.552,4.138 C -16.552,-2.679 -10.268,0 0,0 m 0,-30.529 c -10.268,0 -16.552,2.679 -16.552,4.138 v 7.305 c 3.564,-2.088 10.083,-3.167 16.552,-3.167 6.469,0 12.988,1.078 16.552,3.167 v -7.305 c 0,-1.459 -6.284,-4.138 -16.552,-4.138 m 16.552,15.356 c 0,-1.459 -6.284,-4.137 -16.552,-4.137 -10.268,0 -16.552,2.678 -16.552,4.137 v 7.306 c 3.564,-2.089 10.083,-3.168 16.552,-3.168 6.469,0 12.988,1.079 16.552,3.168 z m 0,-0.183 c 0,-1.46 -6.284,-4.138 -16.552,-4.138 -10.268,0 -16.552,2.678 -16.552,4.138 v -3.546 c 3.564,-2.089 10.083,-3.167 16.552,-3.167 6.469,0 12.988,1.078 16.552,3.167 z m -35.863,11.218 v -13.287 -8.966 c 0,-4.527 9.715,-6.897 19.311,-6.897 9.596,0 19.31,2.37 19.31,6.897 v 8.483 13.77 C 19.31,0.39 9.596,2.759 0,2.759 c -9.596,0 -19.311,-2.369 -19.311,-6.897"
             style="fill:#e84f52;fill-opacity:1;fill-rule:nonzero;stroke:none"
             id="path2522"
             inkscape:connector-curvature="0" /></g></g></g></g></svg>